<svg xmlns="http://www.w3.org/2000/svg" width="34.753" height="34.753">
    <path data-name="045-instagram" d="M26.608 34.753H8.145A8.155 8.155 0 0 1 0 26.608V8.145A8.155 8.155 0 0 1 8.145 0h18.463a8.155 8.155 0 0 1 8.145 8.145v18.463a8.155 8.155 0 0 1-8.145 8.145zM8.145 2.715a5.436 5.436 0 0 0-5.43 5.43v18.463a5.436 5.436 0 0 0 5.43 5.43h18.463a5.436 5.436 0 0 0 5.43-5.43V8.145a5.436 5.436 0 0 0-5.43-5.43zm18.8 3.394a1.7 1.7 0 1 0 1.7 1.7 1.7 1.7 0 0 0-1.698-1.7zM17.377 26.2a8.834 8.834 0 0 1-8.824-8.824c.485-11.706 17.165-11.7 17.648 0a8.834 8.834 0 0 1-8.824 8.824zm0-14.933a6.109 6.109 0 1 0 6.109 6.109 6.116 6.116 0 0 0-6.109-6.108z" style="fill:#fff"/>
</svg>
