<svg xmlns="http://www.w3.org/2000/svg" width="34.753" height="34.753">
    <path data-name="038-like" d="M29.323 21.449a1.358 1.358 0 0 1-1.358 1.358H17.648a1.358 1.358 0 0 1 0-2.715h10.317a1.358 1.358 0 0 1 1.358 1.357zm-6.109 3.8h-5.566a1.358 1.358 0 0 0 0 2.715h5.566a1.358 1.358 0 0 0 0-2.713zM34.753 8.145v18.463a8.155 8.155 0 0 1-8.145 8.145H8.145A8.155 8.155 0 0 1 0 26.608V8.145A8.155 8.155 0 0 1 8.145 0h18.463a8.155 8.155 0 0 1 8.145 8.145zm-2.715 0a5.436 5.436 0 0 0-5.43-5.43H8.145a5.436 5.436 0 0 0-5.43 5.43v18.463a5.436 5.436 0 0 0 5.43 5.43h18.463a5.436 5.436 0 0 0 5.43-5.43zm-4.073 6.788H17.648a1.358 1.358 0 0 0 0 2.715h10.317a1.358 1.358 0 0 0 0-2.715zm-14.39 2.715a1.358 1.358 0 0 1-2.715 0 1.358 1.358 0 0 0-2.715 0v3.122H9.5a1.358 1.358 0 0 1 0 2.715H8.145v3.122a1.358 1.358 0 0 1-2.715 0v-8.96a4.073 4.073 0 0 1 8.145.001zM27.965 7.4H6.788a1.358 1.358 0 0 0 0 2.715h21.177a1.358 1.358 0 0 0 0-2.715z" style="fill:#fff"/>
</svg>
