<svg xmlns="http://www.w3.org/2000/svg" width="36.519" height="28.532">
    <path data-name="040-youtube" d="M18.259 84.523c-4.647 0-8.725-.3-11.327-.559a7.13 7.13 0 0 1-6.384-6.11 52.913 52.913 0 0 1 0-15.194 7.13 7.13 0 0 1 6.384-6.11c2.6-.255 6.681-.559 11.327-.559s8.725.3 11.327.559a7.13 7.13 0 0 1 6.384 6.11 52.914 52.914 0 0 1 0 15.194 7.13 7.13 0 0 1-6.384 6.111c-2.602.254-6.68.558-11.327.558zm0-25.679c-4.531 0-8.51.3-11.049.545a4.285 4.285 0 0 0-3.837 3.671 50 50 0 0 0 0 14.394 4.285 4.285 0 0 0 3.837 3.671c2.54.249 6.518.545 11.049.545s8.51-.3 11.049-.545a4.285 4.285 0 0 0 3.837-3.671 51.537 51.537 0 0 0 .521-7.2 51.536 51.536 0 0 0-.521-7.2 4.285 4.285 0 0 0-3.837-3.671 117.94 117.94 0 0 0-11.049-.539zm-1.85 18.174a3.583 3.583 0 0 1-3.57-3.558v-6.443a3.57 3.57 0 0 1 5.4-3.048l5.415 3.222a3.553 3.553 0 0 1 0 6.1l-5.414 3.218a3.573 3.573 0 0 1-1.831.51zm0-10.7a.753.753 0 0 0-.365.1.674.674 0 0 0-.355.6v6.443a.674.674 0 0 0 .355.6.716.716 0 0 0 .734-.007l5.422-3.219a.686.686 0 0 0 0-1.192l-5.415-3.222a.713.713 0 0 0-.373-.105z" transform="translate(0 -55.991)" style="fill:#fff"/>
</svg>
