<svg xmlns="http://www.w3.org/2000/svg" width="34.766" height="34.76">
    <path data-name="039-twitter" d="M27.09 12.6a1.358 1.358 0 0 1 0 2.715h-.407v1.774A10.259 10.259 0 0 1 7.911 22.8a1.358 1.358 0 1 1 2.247-1.524 7.544 7.544 0 0 0 13.809-4.184v-4.177a2.525 2.525 0 0 0-2.555-2.55 2.5 2.5 0 0 0-2.536 2.511 1.358 1.358 0 1 1-2.715 0 5.26 5.26 0 0 1 10.513-.276h.416zm7.669 4.99c.1 9.312-8.138 17.395-17.44 17.206H17.3a17.167 17.167 0 0 1-7.762-1.824 6.014 6.014 0 0 0-6.948 1.166l-.266.266a1.358 1.358 0 0 1-2.317-.96V17.587C-.279 8.224 8.019-.153 17.384.047a17.41 17.41 0 0 1 17.375 17.547zM27.807 7.084C18.534-2.194 2.656 4.454 2.723 17.568v13.113a8.691 8.691 0 0 1 8.036-.137 14.478 14.478 0 0 0 6.541 1.542h.014c12.986.019 19.63-15.835 10.493-25.002zM16.448 18.639a1.358 1.358 0 0 0-1.659-2.149 3.524 3.524 0 0 1-5.336-1.308.088.088 0 0 1 .005-.094.076.076 0 0 1 .074-.04h2.625a1.358 1.358 0 0 0 0-2.715H9.532a2.816 2.816 0 0 0-2.541 3.992 6.231 6.231 0 0 0 9.458 2.314z" transform="translate(-.001 -.044)" style="fill:#fff"/>
</svg>
